<?xml version="1.0" standalone="no"?>
<!DOCTYPE svg PUBLIC "-//W3C//DTD SVG 20010904//EN"
 "http://www.w3.org/TR/2001/REC-SVG-20010904/DTD/svg10.dtd">
<svg version="1.0" xmlns="http://www.w3.org/2000/svg"
 width="800.000000pt" height="800.000000pt" viewBox="0 0 800.000000 800.000000"
 preserveAspectRatio="xMidYMid meet">
<metadata>
Created by potrace 1.14, written by Peter Selinger 2001-2017
</metadata>
<g transform="translate(0.000000,800.000000) scale(0.100000,-0.100000)"
fill="#000000" stroke="none">
<path d="M0 4000 l0 -4000 4000 0 4000 0 0 4000 0 4000 -4000 0 -4000 0 0
-4000z m5060 1669 c-11 -8 -5 -9 25 -5 22 3 92 8 155 11 l115 5 -105 -25 c-57
-14 -109 -27 -115 -29 -21 -9 113 -5 174 5 67 10 187 -5 162 -21 -21 -12 14
-20 97 -21 60 -1 70 -3 47 -10 -19 -5 29 -7 125 -5 143 3 150 2 97 -9 -84 -18
-95 -34 -23 -34 31 1 60 -2 63 -5 4 -3 -9 -6 -28 -7 l-34 -1 34 -15 c19 -8 42
-12 52 -10 10 3 19 2 21 -2 3 -7 195 -49 240 -53 37 -3 -163 -17 -334 -24 -92
-3 -158 -10 -158 -16 0 -5 -14 -7 -32 -3 -25 5 -29 4 -18 -4 8 -6 31 -11 51
-11 19 0 39 -4 45 -10 5 -5 38 -13 72 -16 71 -8 73 -24 3 -24 -27 0 -62 -3
-79 -6 -31 -6 -31 -6 -11 -27 24 -26 24 -30 -1 -52 -11 -10 -20 -30 -20 -44 0
-51 41 -256 65 -329 14 -40 25 -85 25 -100 -1 -25 -2 -25 -20 13 l-20 40 6
-80 c8 -119 41 -269 79 -365 19 -47 42 -113 51 -147 l17 -62 23 47 c13 26 24
55 24 64 0 24 49 124 89 181 19 28 39 78 52 129 11 45 41 124 66 175 25 51 41
98 37 104 -4 7 -3 9 3 6 11 -7 11 124 -1 208 -6 44 -5 47 6 25 11 -23 13 -21
18 35 4 33 7 49 8 36 3 -43 16 -12 23 55 4 36 12 71 19 77 6 7 11 8 10 2 -2
-5 -2 -21 -1 -35 2 -34 16 -12 36 57 16 54 35 78 35 44 0 -32 18 -34 47 -7 34
32 46 33 38 4 -17 -55 16 4 50 90 21 50 38 92 39 92 1 0 0 -28 -2 -62 l-4 -63
31 29 31 30 0 -24 c0 -23 0 -23 15 -4 14 18 14 18 15 -6 0 -21 9 -13 52 47 29
40 54 70 56 68 3 -3 -2 -24 -11 -47 -16 -42 -19 -88 -6 -88 3 0 11 10 17 23
l11 22 0 -22 c1 -12 7 -25 14 -30 17 -11 57 -11 57 1 0 5 10 0 23 -12 13 -12
28 -22 35 -22 6 0 17 -10 23 -22 9 -17 9 -24 -3 -32 -8 -6 -18 -21 -22 -33 -8
-26 -10 -262 -2 -270 3 -3 34 19 68 48 l63 54 -40 -50 c-21 -27 -63 -77 -92
-111 -59 -68 -66 -83 -27 -58 l25 17 -27 -56 c-30 -60 -27 -82 6 -52 24 22 24
17 5 -55 -8 -30 -15 -80 -16 -110 -1 -41 -3 -49 -8 -30 -13 44 -29 -69 -37
-257 -6 -153 -4 -177 11 -210 16 -33 16 -37 2 -48 -20 -14 -37 -145 -37 -280
0 -53 -4 -84 -9 -77 -10 17 -19 -78 -27 -323 -4 -104 -11 -192 -15 -195 -5 -3
-11 -78 -13 -165 -3 -88 -5 -171 -6 -185 l-1 -25 -13 24 c-12 22 -13 19 -19
-39 -4 -35 -7 -84 -7 -109 0 -25 -7 -68 -14 -96 l-14 -50 -1 62 c-1 34 -5 64
-10 67 -9 6 -20 -140 -22 -299 -1 -60 -5 -137 -9 -170 l-7 -60 -2 73 c0 46 -5
71 -11 67 -6 -4 -10 36 -11 112 -2 121 -2 120 -25 -27 l-9 -55 -7 80 c-4 44
-10 136 -14 205 -4 77 -10 117 -15 105 -5 -14 -8 -6 -8 28 -1 26 4 47 9 47 6
0 10 12 10 27 0 32 -11 23 -26 -20 -11 -31 -12 -30 -18 33 -16 149 -32 707
-29 995 3 254 7 330 23 420 14 77 18 125 13 159 l-8 50 -57 -130 c-31 -71 -70
-163 -86 -204 -17 -42 -43 -102 -60 -135 -40 -81 -86 -189 -106 -252 -10 -29
-29 -69 -44 -90 -14 -21 -33 -58 -42 -83 -9 -25 -31 -74 -50 -110 -18 -36 -43
-99 -55 -140 -12 -41 -26 -74 -32 -73 -6 1 -23 -42 -38 -95 -16 -53 -32 -104
-37 -112 -10 -16 -4 87 8 138 l6 27 -27 -30 c-14 -16 -46 -70 -70 -120 -49
-100 -54 -105 -25 -21 19 56 41 156 34 156 -2 0 -24 -42 -49 -92 -49 -103 -55
-104 -24 -3 11 37 18 77 15 88 -3 11 0 30 7 41 6 12 12 28 13 36 1 8 5 32 9
53 9 44 4 45 -87 21 -33 -8 -62 -13 -65 -10 -3 2 26 21 63 41 38 19 58 33 44
29 -24 -7 -23 -5 8 24 37 34 41 46 12 37 -26 -8 -25 1 4 40 24 31 24 34 11 86
-8 33 -13 44 -14 29 -2 -39 -21 -3 -21 40 0 28 -3 32 -11 20 -9 -12 -9 -11 -2
5 14 33 7 159 -11 193 -9 17 -16 41 -16 54 0 13 -7 33 -15 44 -22 33 -36 99
-44 224 -5 80 -13 126 -26 150 -10 19 -26 62 -35 95 l-17 59 -5 -101 c-7 -113
-26 -175 -29 -88 l-1 50 -14 -45 c-8 -25 -26 -99 -40 -165 -21 -101 -26 -163
-34 -399 -9 -278 -19 -373 -21 -195 l-1 94 -13 -70 c-20 -109 -45 -344 -45
-422 0 -38 -7 -94 -17 -124 l-16 -54 -10 38 c-12 50 -23 47 -32 -10 -4 -26
-14 -65 -22 -86 -11 -28 -14 -56 -10 -103 7 -71 -1 -134 -13 -113 -5 7 -15
-10 -26 -45 -10 -31 -21 -56 -26 -56 -4 0 -9 60 -10 133 0 81 -3 115 -7 87 -5
-38 -7 -28 -13 58 -10 145 -21 156 -42 41 -9 -52 -26 -141 -36 -199 l-20 -105
5 150 c3 82 8 181 11 220 4 49 3 66 -5 55 -20 -29 -18 -3 11 115 24 101 29
144 32 272 1 84 1 151 0 150 -1 -1 -19 -59 -39 -129 -21 -70 -40 -126 -42
-124 -4 4 44 321 54 351 5 17 4 18 -11 6 -9 -7 -16 -12 -16 -9 0 2 16 51 36
109 32 94 36 117 39 232 4 143 7 159 41 269 19 62 23 100 24 190 0 62 1 129 2
148 1 19 -2 49 -6 65 -6 24 -5 27 4 13 22 -36 32 -20 25 41 -4 38 -3 61 4 65
7 5 11 -3 11 -20 0 -15 3 -25 6 -21 14 14 -22 157 -58 229 -45 91 -46 99 -13
61 25 -29 31 -22 16 19 -4 13 -11 37 -15 53 l-7 30 21 -25 c11 -14 20 -21 20
-16 0 19 -24 86 -31 86 -5 0 -57 7 -116 16 -89 13 -114 14 -148 3 -22 -7 -64
-11 -92 -10 -62 3 -69 -12 -28 -61 17 -20 25 -42 25 -67 0 -32 -4 -38 -30 -48
-20 -8 -35 -24 -45 -48 -28 -66 -95 -348 -110 -461 -8 -61 -22 -128 -30 -150
-12 -30 -14 -32 -9 -9 3 16 3 27 -1 24 -8 -8 -46 -170 -43 -180 2 -4 30 8 63
27 63 36 61 34 -40 -54 -28 -24 -39 -38 -26 -32 l24 12 -21 -35 c-27 -43 -28
-51 -2 -37 26 14 25 6 -5 -74 -15 -39 -29 -106 -35 -164 -18 -176 -33 -272
-41 -266 -5 3 -9 -7 -9 -22 0 -15 -10 -84 -22 -153 -15 -89 -24 -119 -30 -105
-6 13 -7 9 -3 -14 2 -18 1 -31 -4 -27 -5 3 -13 -19 -17 -47 -7 -48 -8 -50 -14
-23 l-7 30 -8 -40 c-4 -22 -16 -78 -26 -125 l-19 -85 4 100 c4 99 4 100 -10
50 -7 -27 -15 -87 -16 -132 -2 -46 -6 -83 -9 -83 -4 0 -12 -13 -19 -30 -7 -16
-15 -28 -19 -25 -9 5 -82 -271 -81 -309 0 -22 -3 -26 -13 -17 -11 8 -17 -5
-32 -67 l-19 -77 -7 50 c-4 28 -8 79 -8 115 l-1 65 -20 -25 -20 -25 7 35 6 35
-28 -25 c-25 -22 -27 -23 -22 -5 4 11 3 43 -1 70 -8 49 -8 47 -25 -70 -33
-228 -36 -230 -30 -20 6 210 7 230 18 310 7 47 6 49 -8 30 -23 -29 -21 -17 24
150 22 82 41 179 43 216 2 36 9 76 15 87 6 12 9 38 5 60 -9 58 48 323 78 360
6 6 8 12 4 12 -4 0 -25 -28 -48 -62 -22 -35 -38 -55 -35 -45 4 9 11 54 17 100
6 45 17 107 25 137 9 36 11 56 4 58 -6 3 -5 10 3 20 11 13 10 15 -8 10 -19 -5
-21 -2 -15 26 4 17 6 46 4 64 -3 35 3 35 40 4 14 -13 17 -13 17 -1 0 8 3 25 7
38 5 21 4 22 -15 12 -16 -8 -10 8 29 80 34 63 49 101 49 128 0 21 7 58 15 81
8 23 15 54 15 67 0 22 2 24 15 13 23 -19 20 201 -4 293 -9 37 -16 67 -14 67 2
0 14 -24 28 -52 l25 -53 -5 105 c-5 102 -4 104 10 66 8 -22 17 -42 20 -44 3
-3 4 49 2 116 -1 67 1 122 5 122 5 0 8 8 8 18 0 11 3 13 8 5 5 -8 13 -8 31 1
l23 13 -31 6 c-20 4 -31 13 -31 23 0 13 -6 15 -31 10 -17 -3 -46 -7 -63 -7
l-31 -1 30 -8 30 -8 -30 -1 c-52 -2 -118 -33 -190 -89 -102 -81 -103 -81 -66
-34 l34 44 -74 -39 c-99 -51 -99 -51 -59 -8 l35 37 -52 -26 c-33 -16 -53 -33
-53 -44 0 -26 -19 -201 -26 -245 l-6 -39 28 18 c29 18 29 18 11 -2 -29 -35
-77 -212 -81 -305 -5 -96 -17 -156 -47 -231 -12 -29 -25 -89 -30 -133 -7 -67
-29 -145 -66 -235 -17 -40 -23 -198 -10 -270 7 -44 7 -45 -7 -15 -14 30 -14
29 -16 -35 -1 -43 -4 -58 -9 -45 -6 15 -10 8 -15 -30 -11 -78 -18 -98 -26 -85
-4 6 -10 -10 -14 -37 -8 -57 -25 -92 -26 -53 -2 61 -20 -25 -30 -147 -7 -84
-18 -143 -31 -172 -10 -24 -19 -61 -19 -82 0 -21 -4 -40 -9 -43 -4 -3 -6 7 -4
22 3 25 3 25 -6 5 -5 -11 -20 -86 -33 -165 l-23 -143 -5 95 -5 95 -19 -100
c-13 -70 -21 -94 -26 -80 -6 16 -8 13 -11 -15 -2 -19 -8 -33 -14 -30 -5 3 -8
14 -6 25 4 25 -11 10 -27 -27 -9 -23 -9 -26 3 -21 10 3 15 -1 15 -12 0 -18
-61 -187 -66 -182 -1 1 3 25 10 52 7 28 16 68 19 90 6 37 4 35 -28 -30 -37
-74 -38 -73 -16 50 5 27 7 53 5 57 -3 4 2 47 11 95 18 107 18 115 0 83 -13
-23 -14 -24 -15 -4 0 34 21 84 36 84 10 0 14 11 13 38 -1 20 1 46 6 57 7 16 4
15 -13 -5 l-21 -25 -1 24 c0 21 -3 23 -32 18 -123 -22 -160 -27 -218 -27 -76
0 -112 -8 -103 -23 4 -7 -9 -8 -38 -4 -28 4 -37 3 -24 -2 12 -5 27 -17 35 -27
14 -16 13 -17 -3 -11 -10 4 -25 3 -35 -2 -9 -5 -35 -13 -57 -18 -22 -6 -48
-14 -57 -18 -15 -6 -18 -2 -18 19 0 18 -5 26 -17 26 -14 0 -15 -2 -4 -9 9 -6
-4 -9 -35 -8 -27 0 -111 -14 -188 -32 -106 -24 -142 -36 -156 -53 -15 -19 -20
-20 -33 -10 -21 17 -168 1 -240 -27 -43 -16 -68 -14 -37 4 14 8 20 14 14 15
-36 1 -208 -34 -256 -52 -49 -19 -59 -28 -74 -63 l-18 -40 -3 33 c-4 31 -7 33
-31 28 l-27 -6 25 15 c30 17 17 19 -50 4 -36 -8 -50 -15 -50 -27 0 -13 -2 -14
-9 -4 -6 10 -20 8 -66 -12 -67 -30 -79 -32 -47 -8 22 17 21 17 -25 14 -43 -2
-46 -1 -30 11 9 8 17 18 17 22 0 8 -103 1 -154 -11 -21 -5 -27 -4 -22 5 5 7
-2 11 -18 11 -38 0 -31 15 14 30 21 7 37 16 35 20 -3 4 16 15 40 25 67 25 64
35 -11 34 -50 -1 -72 -6 -83 -18 -13 -14 -29 -16 -84 -13 -37 2 -67 8 -67 13
0 5 11 9 25 9 32 0 128 21 122 27 -3 2 -42 7 -88 11 l-84 8 75 18 c41 10 85
24 96 31 12 8 50 19 85 26 90 16 100 22 54 28 -44 7 -39 16 16 26 23 4 39 3
43 -4 4 -6 14 -11 22 -11 9 0 12 5 8 11 -5 9 1 10 22 5 16 -4 26 -5 22 -1 -3
4 -37 15 -75 25 l-68 18 50 2 c28 1 75 9 105 19 51 17 55 21 61 54 3 20 2 34
-3 31 -5 -3 -6 5 -3 18 4 16 -1 33 -16 53 -20 26 -20 28 -3 12 11 -9 23 -17
27 -17 13 0 26 79 27 169 0 52 3 99 6 105 3 6 -2 2 -10 -8 -16 -19 -16 -19
-16 6 0 37 10 58 26 58 8 0 14 2 14 4 0 2 3 12 7 22 4 12 3 15 -5 10 -15 -9
-15 -1 -1 26 11 20 10 20 -12 4 -33 -22 -34 -21 -34 27 0 23 -4 54 -8 70 -6
20 -4 27 7 27 8 0 28 30 46 67 34 75 34 98 -1 180 -14 33 -16 43 -5 34 12 -10
13 -9 9 9 -4 16 -11 19 -27 14 -21 -6 -21 -6 -1 11 19 15 16 16 -55 10 -41 -4
-94 -11 -117 -17 -49 -12 -83 -4 -65 14 17 17 -64 41 -89 27 -23 -12 -59 -12
-59 1 0 6 -9 10 -19 10 -44 0 -28 19 26 31 31 7 51 15 44 17 -7 2 7 14 31 25
l43 21 -95 10 -95 10 55 8 c30 4 74 10 98 13 26 4 40 10 36 17 -5 7 13 8 55 3
71 -8 79 -1 19 16 l-43 13 59 8 c32 4 64 12 70 18 7 5 46 12 87 16 97 8 105
10 89 29 -11 13 -10 18 4 28 10 8 16 23 15 37 -2 14 2 43 8 65 7 22 18 83 26
135 14 99 8 162 -23 220 l-13 25 27 -24 26 -24 0 24 c0 13 -7 49 -15 79 -12
48 -12 53 0 36 14 -18 15 -14 15 41 0 67 -6 72 -80 73 -26 0 -31 3 -20 10 23
15 -52 12 -128 -4 -73 -16 -71 -11 13 34 l60 31 -75 -5 -75 -6 100 35 100 35
-95 -5 c-52 -3 -96 -9 -98 -14 -1 -4 -9 -17 -17 -27 -14 -18 -14 -18 -15 4 0
13 4 20 10 17 6 -3 10 -1 10 5 0 15 -84 50 -139 57 l-46 7 60 11 c33 7 87 20
120 29 32 9 73 16 90 16 42 0 76 11 69 22 -3 5 6 6 23 2 27 -6 27 -6 8 10
l-20 16 20 12 c11 7 26 13 33 14 7 1 24 9 37 18 13 9 27 16 31 16 6 0 2 -35
-7 -70 -3 -11 3 -14 26 -12 41 5 44 10 15 32 -24 18 -21 18 65 -2 128 -29 183
-28 158 4 -16 21 -64 108 -60 108 2 0 24 -25 48 -55 39 -49 48 -55 81 -55 21
0 38 4 38 9 0 4 12 6 27 3 18 -3 30 1 40 13 12 18 19 10 14 -18 -2 -12 30 -21
38 -10 13 20 98 52 151 57 30 3 71 10 90 15 55 17 58 13 16 -23 l-40 -33 45
-8 c24 -4 132 -9 239 -11 107 -2 224 -7 260 -11 l65 -8 -47 -13 c-27 -7 -48
-14 -48 -17 0 -3 64 -2 143 0 78 3 136 2 129 -1 -7 -3 -56 -14 -110 -24 -122
-22 -114 -23 230 -46 142 -10 256 -20 253 -22 -2 -3 -66 -13 -142 -22 -124
-16 -132 -18 -73 -20 55 -2 32 -7 -155 -35 -278 -43 -282 -44 -155 -39 l105 3
-135 -29 c-114 -25 -125 -29 -70 -25 212 15 213 14 20 -20 -288 -51 -491 -68
-587 -50 -30 5 -43 4 -43 -4 0 -7 -19 -11 -49 -11 -56 0 -61 -7 -61 -76 0 -26
-5 -44 -11 -44 -8 0 -10 -23 -7 -70 4 -70 1 -76 -34 -71 -4 0 -5 -6 -2 -13 3
-8 0 -24 -6 -36 -12 -22 -17 -52 -26 -137 -4 -39 -2 -53 7 -53 10 0 10 -3 1
-12 -22 -22 -12 -27 28 -13 22 8 42 10 44 6 3 -4 33 -2 68 5 94 18 159 23 152
12 -4 -7 8 -8 32 -4 67 11 227 26 264 25 l35 -1 -30 -8 c-23 -6 -14 -8 40 -10
l70 -2 -35 -14 c-32 -12 -22 -13 105 -8 77 4 138 4 135 1 -3 -3 -51 -14 -108
-25 -57 -11 -106 -23 -109 -26 -4 -3 23 -6 59 -6 72 0 339 -25 412 -39 l46 -8
1 46 2 46 10 -47 c6 -27 14 -48 19 -48 4 0 8 3 8 8 0 4 10 63 22 132 14 81 21
164 21 235 -1 72 2 103 8 90 9 -20 4 229 -7 335 -10 92 5 51 40 -111 l33 -153
13 50 13 49 10 -55 10 -55 12 36 c7 20 18 62 25 95 7 32 17 72 23 89 l11 29 7
-24 c6 -22 7 -21 8 9 1 19 4 31 8 28 13 -14 31 43 26 82 -4 27 -2 41 6 41 6 0
11 11 11 25 0 13 7 28 16 33 13 7 10 10 -16 15 -18 4 -37 4 -43 0 -6 -3 -7 -1
-3 5 9 15 4 15 -69 -3 -91 -22 -96 -17 -25 20 54 28 62 35 45 41 -18 7 -17 9
10 20 25 10 27 14 13 19 -24 9 -23 22 2 30 28 9 45 42 30 60 -8 10 -8 18 1 33
9 15 8 30 -6 73 -28 84 -28 87 0 37 25 -48 40 -63 28 -30 -6 15 -3 14 17 -3
l23 -20 -7 23 c-7 20 -5 22 17 17 15 -4 37 0 55 9 29 15 32 15 46 -6 14 -19
21 -20 85 -15 39 3 71 3 71 -1 0 -11 176 7 277 28 50 11 109 20 130 19 l38 -1
-48 -15 c-27 -8 -47 -16 -45 -18 1 -1 50 6 108 16 164 30 356 52 460 54 128 1
338 16 370 26 36 11 47 10 30 -2z m900 -159 c0 -5 -4 -10 -9 -10 -6 0 -13 5
-16 10 -3 6 1 10 9 10 9 0 16 -4 16 -10z m160 -20 c38 -6 31 -8 -42 -9 -48 0
-89 3 -92 8 -9 14 16 21 54 14 19 -3 55 -9 80 -13z m-2750 -65 c0 -29 -12 -37
-43 -30 l-24 6 25 29 c28 32 42 31 42 -5z m2445 -35 c24 -6 18 -8 -32 -9 -34
0 -65 4 -68 9 -7 12 54 12 100 0z m-2515 -80 c-8 -5 -19 -10 -25 -10 -5 0 -3
5 5 10 8 5 20 10 25 10 6 0 3 -5 -5 -10z m-1995 -39 c9 -16 -13 -23 -47 -16
-22 5 -27 9 -17 16 18 12 56 11 64 0z m-165 -145 c0 -24 -14 -26 -75 -13 -45
9 -52 13 -34 18 52 12 109 10 109 -5z m2150 -95 c0 -16 2 -38 5 -48 3 -10 -1
-4 -9 12 -18 35 -20 65 -6 65 6 0 10 -13 10 -29z m-353 13 c-3 -3 -12 -4 -19
-1 -8 3 -5 6 6 6 11 1 17 -2 13 -5z m20 -40 c-3 -3 -12 -4 -19 -1 -8 3 -5 6 6
6 11 1 17 -2 13 -5z m-1562 -705 c11 -17 -1 -21 -34 -14 -17 4 -29 11 -25 16
7 12 51 11 59 -2z m2591 -331 c-19 -26 -21 -11 -4 29 9 22 12 24 15 11 3 -10
-3 -28 -11 -40z m1665 -631 c-13 -13 -26 -3 -16 12 3 6 11 8 17 5 6 -4 6 -10
-1 -17z m116 -244 c-3 -10 -5 -4 -5 12 0 17 2 24 5 18 2 -7 2 -21 0 -30z
m-2932 -188 l40 -14 -57 -1 c-53 0 -76 9 -61 24 10 10 34 7 78 -9z m-1805
-156 c0 -5 -4 -9 -10 -9 -5 0 -10 7 -10 16 0 8 5 12 10 9 6 -3 10 -10 10 -16z"/>
<path d="M3470 5164 c0 -40 21 -46 44 -12 18 26 14 34 -19 40 -23 5 -25 2 -25
-28z"/>
<path d="M4258 5193 c-2 -5 -2 -22 1 -40 l6 -32 17 39 c16 38 16 40 -2 40 -10
0 -20 -3 -22 -7z"/>
<path d="M3597 5133 c-4 -3 -7 -20 -6 -37 l1 -31 12 35 c11 29 14 32 17 14 l4
-22 35 24 34 24 -45 0 c-25 0 -49 -3 -52 -7z"/>
<path d="M3490 5111 c0 -5 6 -12 13 -14 10 -4 10 -6 0 -6 -8 -1 -13 -15 -12
-38 0 -29 2 -33 8 -18 5 11 6 25 4 31 -2 7 0 15 6 19 15 9 14 22 -4 29 -8 3
-15 1 -15 -3z"/>
<path d="M3008 5103 c6 -2 18 -2 25 0 6 3 1 5 -13 5 -14 0 -19 -2 -12 -5z"/>
<path d="M3648 5088 c-27 -9 -28 -12 -27 -81 1 -54 3 -65 9 -42 5 21 8 6 9
-54 0 -48 5 -81 10 -75 6 7 61 237 61 258 0 9 -31 6 -62 -6z"/>
<path d="M1393 5083 c15 -2 39 -2 55 0 15 2 2 4 -28 4 -30 0 -43 -2 -27 -4z"/>
<path d="M6800 5058 c0 -7 -3 -24 -7 -38 -6 -22 -5 -24 10 -11 18 15 23 61 7
61 -5 0 -10 -6 -10 -12z"/>
<path d="M2608 4973 c7 -3 16 -2 19 1 4 3 -2 6 -13 5 -11 0 -14 -3 -6 -6z"/>
<path d="M1900 4613 c0 -21 3 -24 9 -14 5 8 7 20 4 28 -8 21 -13 15 -13 -14z"/>
<path d="M4509 4492 c-3 -20 -2 -29 4 -23 5 5 7 19 5 32 -3 20 -5 19 -9 -9z"/>
<path d="M1852 4411 c-13 -36 -9 -52 9 -34 6 6 9 23 7 39 l-3 29 -13 -34z"/>
<path d="M2425 4330 c-3 -5 1 -10 10 -10 9 0 13 5 10 10 -3 6 -8 10 -10 10 -2
0 -7 -4 -10 -10z"/>
<path d="M2880 4240 c-30 -6 -24 -8 35 -10 39 -2 57 -5 40 -7 -102 -12 -315
-45 -345 -53 -25 -6 -10 -8 55 -4 l90 4 -130 -34 c-145 -38 -146 -43 -5 -21
133 20 175 17 60 -5 -52 -10 -153 -32 -224 -49 -70 -17 -145 -31 -165 -31 -20
0 -52 -5 -71 -11 -33 -11 -151 -23 -342 -35 l-88 -6 -1 -191 c-1 -167 -13
-361 -18 -271 0 16 -7 38 -14 48 -11 16 -15 5 -26 -76 -42 -307 -44 -378 -15
-378 8 0 14 4 14 9 0 4 19 11 43 14 23 3 71 10 107 16 124 20 136 21 120 10
-11 -8 -3 -9 30 -5 167 22 345 32 324 18 -7 -4 60 -8 148 -9 114 -1 163 -5
168 -13 7 -12 122 -9 215 5 20 3 11 -3 -25 -17 l-54 -22 34 -8 c19 -5 65 -6
103 -3 44 4 67 3 67 -4 0 -6 11 -11 25 -11 29 0 34 -16 8 -23 -12 -3 -10 -5 7
-6 22 -1 25 3 23 31 -2 45 -3 46 -14 23 -6 -13 -7 30 -3 120 3 77 1 135 -3
129 -4 -7 -8 95 -9 225 0 130 3 225 7 211 5 -14 6 32 3 101 -5 101 -3 133 10
163 9 21 17 57 17 80 1 39 2 40 9 11 7 -29 8 -29 9 10 1 22 4 50 7 63 6 22 5
22 -92 21 -55 -1 -115 -5 -134 -9z"/>
<path d="M3142 4230 c0 -14 2 -19 5 -12 2 6 2 18 0 25 -3 6 -5 1 -5 -13z"/>
<path d="M5847 4200 c3 -25 9 -52 14 -60 15 -26 9 42 -6 75 -14 30 -14 30 -8
-15z"/>
<path d="M2548 4153 c7 -3 16 -2 19 1 4 3 -2 6 -13 5 -11 0 -14 -3 -6 -6z"/>
<path d="M3122 4050 c0 -19 2 -27 5 -17 2 9 2 25 0 35 -3 9 -5 1 -5 -18z"/>
<path d="M1365 3704 c-17 -17 -16 -35 2 -41 6 -2 13 10 15 27 5 35 5 35 -17
14z"/>
<path d="M6412 3298 c-1 -107 2 -168 8 -168 11 0 12 96 0 240 -6 89 -7 85 -8
-72z"/>
<path d="M5776 3262 c-2 -4 -1 -14 3 -21 6 -9 10 -7 14 8 5 20 -7 29 -17 13z"/>
<path d="M3127 3120 c-3 -11 -1 -20 4 -20 5 0 9 9 9 20 0 11 -2 20 -4 20 -2 0
-6 -9 -9 -20z"/>
<path d="M2970 3031 c0 -7 87 -37 100 -34 2 1 6 6 8 12 2 7 -12 11 -37 11 -22
0 -43 5 -46 10 -8 12 -25 13 -25 1z"/>
<path d="M6422 3010 c0 -14 2 -19 5 -12 2 6 2 18 0 25 -3 6 -5 1 -5 -13z"/>
<path d="M6422 2930 c0 -14 2 -19 5 -12 2 6 2 18 0 25 -3 6 -5 1 -5 -13z"/>
<path d="M2478 2883 c6 -2 18 -2 25 0 6 3 1 5 -13 5 -14 0 -19 -2 -12 -5z"/>
<path d="M2348 2863 c7 -3 16 -2 19 1 4 3 -2 6 -13 5 -11 0 -14 -3 -6 -6z"/>
<path d="M3081 2814 c0 -11 3 -14 6 -6 3 7 2 16 -1 19 -3 4 -6 -2 -5 -13z"/>
<path d="M3921 2784 c0 -11 3 -14 6 -6 3 7 2 16 -1 19 -3 4 -6 -2 -5 -13z"/>
<path d="M3138 2670 c-3 -16 -1 -30 4 -30 4 0 8 14 8 30 0 17 -2 30 -4 30 -2
0 -6 -13 -8 -30z"/>
<path d="M3985 2690 c-3 -5 -1 -10 4 -10 6 0 11 5 11 10 0 6 -2 10 -4 10 -3 0
-8 -4 -11 -10z"/>
</g>
</svg>
